Coordinates
version=1
nRows=4
nColumns=114
inDegrees=yes

Units are S.I. units (second, meters, Newtons, ...)
If the header above contains a line with 'inDegrees', this indicates whether rotational values are in degrees (yes) or radians (no).

endheader 
time	pelvis_tilt	pelvis_list	pelvis_rotation	pelvis_tx	pelvis_ty	pelvis_tz	hip_flexion_l	hip_adduction_l	hip_rotation_l	hip_flexion_r	hip_adduction_r	hip_rotation_r	knee_angle_l	knee_angle_r	ankle_angle_l	ankle_angle_r	subtalar_angle_l	subtalar_angle_r	mtp_angle_l	mtp_angle_r	lumbar_extension	lumbar_bending	lumbar_rotation	arm_flex_l	arm_add_l	arm_rot_l	arm_flex_r	arm_add_r	arm_rot_r	elbow_flex_l	elbow_flex_r	pro_sup_l	pro_sup_r	addbrev_l/activation	addlong_l/activation	addmagDist_l/activation	addmagIsch_l/activation	addmagMid_l/activation	addmagProx_l/activation	bflh_l/activation	bfsh_l/activation	edl_l/activation	ehl_l/activation	fdl_l/activation	fhl_l/activation	gaslat_l/activation	gasmed_l/activation	glmax1_l/activation	glmax2_l/activation	glmax3_l/activation	glmed1_l/activation	glmed2_l/activation	glmed3_l/activation	glmin1_l/activation	glmin2_l/activation	glmin3_l/activation	grac_l/activation	iliacus_l/activation	perbrev_l/activation	perlong_l/activation	piri_l/activation	psoas_l/activation	recfem_l/activation	sart_l/activation	semimem_l/activation	semiten_l/activation	soleus_l/activation	tfl_l/activation	tibant_l/activation	tibpost_l/activation	vasint_l/activation	vaslat_l/activation	vasmed_l/activation	addbrev_r/activation	addlong_r/activation	addmagDist_r/activation	addmagIsch_r/activation	addmagMid_r/activation	addmagProx_r/activation	bflh_r/activation	bfsh_r/activation	edl_r/activation	ehl_r/activation	fdl_r/activation	fhl_r/activation	gaslat_r/activation	gasmed_r/activation	glmax1_r/activation	glmax2_r/activation	glmax3_r/activation	glmed1_r/activation	glmed2_r/activation	glmed3_r/activation	glmin1_r/activation	glmin2_r/activation	glmin3_r/activation	grac_r/activation	iliacus_r/activation	perbrev_r/activation	perlong_r/activation	piri_r/activation	psoas_r/activation	recfem_r/activation	sart_r/activation	semimem_r/activation	semiten_r/activation	soleus_r/activation	tfl_r/activation	tibant_r/activation	tibpost_r/activation	vasint_r/activation	vaslat_r/activation	vasmed_r/activation	
          2.25000000	        -17.52979194	         -0.94502376	        -46.52701633	          1.33730860	          1.09940351	          0.25920870	         36.52488099	         -8.73665565	         -0.21323932	         71.10753910	        -16.42590345	          1.67213457	         63.02334895	        128.72758831	         15.75204128	         -6.00645740	        -27.08208657	        -20.60489760	        -44.99974391	        -37.16003889	        -27.60680031	          9.95762670	          2.63495193	        -16.65927412	        -43.22139352	          1.59199261	        -17.75307642	        -43.33619968	         16.51875982	         93.25382366	         73.34372102	         80.12091111	         62.34959683	          0.01265479	          0.01210390	          0.01659576	          0.03550977	          0.01454477	          0.01315473	          0.04052782	          0.01094188	          0.01038327	          0.01844177	          0.02136383	          0.02582293	          0.01117877	          0.01046987	          0.01143438	          0.06608865	          0.05759933	          0.01005201	          0.01008768	          0.01013313	          0.01012943	          0.01013285	          0.01013926	          0.01328712	          0.01027845	          0.01007176	          0.01002843	          0.01150581	          0.01055056	          0.01008035	          0.01074768	          0.06009680	          0.01896435	          0.03271218	          0.01010486	          0.02425032	          0.04748799	          0.06435996	          0.19566208	          0.08790611	          0.01014721	          0.01008775	          0.01152119	          0.01172050	          0.01046178	          0.01024610	          0.01097414	          0.01033503	          0.02182357	          0.01492094	          0.01207916	          0.01066067	          0.06812015	          0.11222031	          0.01496601	          0.04277051	          0.01339961	          0.01186740	          0.01201312	          0.01239560	          0.01149445	          0.01185477	          0.01214280	          0.01029298	          0.01012275	          0.01361697	          0.01654711	          0.02429936	          0.01006596	          0.14329919	          0.01010944	          0.01160637	          0.01136726	          0.01019592	          0.13313278	          0.02664976	          0.01033943	          0.01368029	          0.01332514	          0.01358314	
          2.26000000	        -17.26148047	         -0.65177975	        -46.09814706	          1.33687494	          1.09836981	          0.25844167	         37.63067800	         -7.74548172	         -0.22952604	         71.33141291	        -17.07499563	          1.27835365	         64.55247023	        129.47308968	         15.21817600	         -6.73184444	        -26.74506594	        -20.85616956	        -39.70468846	        -32.75276486	        -27.41103697	          9.82016315	          2.75842663	        -16.92249338	        -41.36525608	          1.77573702	        -17.00511710	        -42.17869612	         16.47068028	         90.35434323	         72.65077448	         79.05036843	         61.64267183	          0.01088936	          0.01042331	          0.01397358	          0.02971254	          0.01227110	          0.01125342	          0.03381388	          0.01119574	          0.01196957	          0.01558310	          0.01801879	          0.02162021	          0.01096394	          0.01067347	          0.08290663	          0.13356287	          0.04806877	          0.12634802	          0.09695136	          0.08643539	          0.04200245	          0.04132260	          0.04728028	          0.01154642	          0.01042921	          0.01238204	          0.01699442	          0.13264418	          0.01023838	          0.01022933	          0.01057625	          0.05011383	          0.01595770	          0.03112968	          0.03339144	          0.02023760	          0.03959296	          0.05623582	          0.16428884	          0.07547773	          0.01007808	          0.01004377	          0.01014751	          0.01023170	          0.01010681	          0.01021833	          0.02381914	          0.02535991	          0.02576311	          0.01802673	          0.01296950	          0.01132032	          0.05681304	          0.09354387	          0.01252802	          0.03568391	          0.01132184	          0.01005093	          0.01011826	          0.01041698	          0.01012117	          0.01017995	          0.01031587	          0.01018648	          0.01013990	          0.01713762	          0.01939612	          0.02034804	          0.01019593	          0.11944847	          0.11589531	          0.01007936	          0.01018515	          0.01014469	          0.11095637	          0.02969500	          0.01044951	          0.01145333	          0.01112264	          0.01135412	
          2.27000000	        -17.17134288	         -0.76154834	        -45.89338654	          1.33675528	          1.09717296	          0.25797542	         37.98511104	         -7.33804929	         -0.41849767	         71.11165114	        -17.26819508	          0.51855843	         64.71264252	        129.93915861	         14.41059298	         -7.14872278	        -26.07788770	        -20.46741363	        -35.04788233	        -28.87752850	        -27.47107425	         10.10838159	          3.31922579	        -17.32013077	        -39.35724586	          2.05126078	        -16.34973276	        -41.10426488	         16.00067144	         87.28719488	         72.00652037	         78.55763266	         61.35279259	          0.01014125	          0.01009588	          0.01174339	          0.02481977	          0.01037349	          0.01020945	          0.02821124	          0.01111437	          0.01142150	          0.01322396	          0.01612808	          0.01826929	          0.01123220	          0.01115305	          0.13856803	          0.20788155	          0.04010634	          0.27219208	          0.19985115	          0.17839569	          0.07028463	          0.07632571	          0.09363901	          0.01033711	          0.01024002	          0.01766997	          0.02548115	          0.15924866	          0.01015783	          0.03795370	          0.01092452	          0.04178959	          0.01337690	          0.03532670	          0.05250092	          0.01689419	          0.03352435	          0.05103041	          0.18213321	          0.06525555	          0.01005046	          0.01002796	          0.01008875	          0.01013560	          0.01006932	          0.01014258	          0.18191270	          0.03213045	          0.02524223	          0.01768362	          0.01299272	          0.01107080	          0.04742070	          0.07799905	          0.01050470	          0.02976792	          0.01012702	          0.01002528	          0.01004656	          0.01007610	          0.01006596	          0.01008462	          0.01010236	          0.01011246	          0.01008982	          0.01773524	          0.02089268	          0.01708013	          0.01016004	          0.09955126	          0.22672233	          0.01004432	          0.01010556	          0.01011959	          0.09247929	          0.02660555	          0.01029490	          0.01008310	          0.01002773	          0.01005376	
          2.28000000	        -17.18088281	         -1.05764051	        -45.86653604	          1.33674371	          1.09543122	          0.25797508	         37.78880294	         -7.35193260	         -0.74860999	         70.69557905	        -17.15001474	         -0.41793047	         63.80511075	        130.26151609	         13.03631280	         -7.51028065	        -25.23414764	        -19.91177677	        -30.95416295	        -25.46866751	        -27.58713328	         10.55997288	          4.08993649	        -17.82839705	        -37.34344096	          2.29885469	        -15.73415131	        -40.24156392	         15.56661621	         84.01970713	         71.36404623	         78.25690544	         61.21400053	          0.01007942	          0.01005064	          0.01010732	          0.02075534	          0.01010809	          0.01013144	          0.02354657	          0.01082531	          0.01106921	          0.01143704	          0.01400501	          0.01538659	          0.01080042	          0.01052918	          0.17448889	          0.23813107	          0.03348795	          0.32885599	          0.24886656	          0.23418543	          0.09420064	          0.11437369	          0.10739980	          0.01015208	          0.01022170	          0.01868969	          0.02515899	          0.14155936	          0.01012151	          0.04270418	          0.01159412	          0.03485227	          0.01123130	          0.04663051	          0.04666610	          0.01411054	          0.02795470	          0.05649496	          0.21927552	          0.05773824	          0.01003928	          0.01002094	          0.01010066	          0.01014352	          0.01007159	          0.01014298	          0.19833687	          0.02863279	          0.02484017	          0.01701870	          0.01273016	          0.01095256	          0.03966990	          0.06508764	          0.01018432	          0.02483418	          0.01580765	          0.01001488	          0.01003017	          0.01006094	          0.01003994	          0.01005069	          0.01006593	          0.01009769	          0.01003610	          0.01903394	          0.02503433	          0.01434901	          0.01004519	          0.08299020	          0.18913401	          0.01008761	          0.01013771	          0.01011182	          0.07708278	          0.02313379	          0.01031002	          0.01014157	          0.01005067	          0.01009464	
